<svg width="24" height="24" viewBox="0 0 24 24" fill="none" xmlns="http://www.w3.org/2000/svg">
<path fill-rule="evenodd" clip-rule="evenodd" d="M4.58798 2H7.95962C9.36614 2 10.4933 3.15 10.4933 4.561V7.97C10.4933 9.39 9.36614 10.53 7.95962 10.53H4.58798C3.19144 10.53 2.05426 9.39 2.05426 7.97V4.561C2.05426 3.15 3.19144 2 4.58798 2ZM4.58798 13.4697H7.95962C9.36614 13.4697 10.4933 14.6107 10.4933 16.0307V19.4397C10.4933 20.8497 9.36614 21.9997 7.95962 21.9997H4.58798C3.19144 21.9997 2.05426 20.8497 2.05426 19.4397V16.0307C2.05426 14.6107 3.19144 13.4697 4.58798 13.4697ZM19.4702 2H16.0985C14.692 2 13.5648 3.15 13.5648 4.561V7.97C13.5648 9.39 14.692 10.53 16.0985 10.53H19.4702C20.8667 10.53 22.0039 9.39 22.0039 7.97V4.561C22.0039 3.15 20.8667 2 19.4702 2ZM16.0985 13.4697H19.4702C20.8667 13.4697 22.0039 14.6107 22.0039 16.0307V19.4397C22.0039 20.8497 20.8667 21.9997 19.4702 21.9997H16.0985C14.692 21.9997 13.5648 20.8497 13.5648 19.4397V16.0307C13.5648 14.6107 14.692 13.4697 16.0985 13.4697Z" fill="#333A4A"/>
</svg>
