<svg width="30" height="30" viewBox="0 0 30 30" fill="none" xmlns="http://www.w3.org/2000/svg">
<path fill-rule="evenodd" clip-rule="evenodd" d="M8.86563 0.832031H21.1481C25.9506 0.832031 29.1665 4.2037 29.1665 9.2187V20.7943C29.1665 25.7951 25.9506 29.1654 21.1481 29.1654H8.86563C4.06313 29.1654 0.83313 25.7951 0.83313 20.7943V9.2187C0.83313 4.2037 4.06313 0.832031 8.86563 0.832031ZM19.264 19.2487C19.7457 18.7685 19.7457 17.9893 19.264 17.5076L16.7423 14.986L19.264 12.4629C19.7457 11.9826 19.7457 11.1893 19.264 10.7076C18.7823 10.2245 18.0032 10.2245 17.5073 10.7076L14.9998 13.2279L12.4782 10.7076C11.9823 10.2245 11.2032 10.2245 10.7215 10.7076C10.2398 11.1893 10.2398 11.9826 10.7215 12.4629L13.2432 14.986L10.7215 17.4935C10.2398 17.9893 10.2398 18.7685 10.7215 19.2487C10.9623 19.4895 11.2882 19.6185 11.5998 19.6185C11.9257 19.6185 12.2373 19.4895 12.4782 19.2487L14.9998 16.7426L17.5215 19.2487C17.7623 19.5051 18.074 19.6185 18.3857 19.6185C18.7115 19.6185 19.0232 19.4895 19.264 19.2487Z" fill="#45526C"/>
</svg>
