<svg width="20" height="20" viewBox="0 0 20 20" fill="none" xmlns="http://www.w3.org/2000/svg">
<g id="Iconly/Bold/Tick Square">
<g id="Tick Square">
<path id="Tick Square_2" fill-rule="evenodd" clip-rule="evenodd" d="M6.39178 1.6666H13.6168C16.4418 1.6666 18.3334 3.64993 18.3334 6.59993V13.4091C18.3334 16.3499 16.4418 18.3333 13.6168 18.3333H6.39178C3.56678 18.3333 1.66678 16.3499 1.66678 13.4091V6.59993C1.66678 3.64993 3.56678 1.6666 6.39178 1.6666ZM9.52512 12.4916L13.4835 8.53326C13.7668 8.24993 13.7668 7.7916 13.4835 7.49993C13.2001 7.2166 12.7335 7.2166 12.4501 7.49993L9.00845 10.9416L7.55012 9.48326C7.26679 9.19993 6.80012 9.19993 6.51679 9.48326C6.23346 9.7666 6.23346 10.2249 6.51679 10.5166L8.50012 12.4916C8.64179 12.6333 8.82512 12.6999 9.00845 12.6999C9.20012 12.6999 9.38345 12.6333 9.52512 12.4916Z" fill="#00B94F"/>
</g>
</g>
</svg>
