<svg width="36" height="36" viewBox="0 0 36 36" fill="none" xmlns="http://www.w3.org/2000/svg">
<circle opacity="0.2" cx="15" cy="15" r="15" fill="#FFDE00"/>
<path d="M24.4923 15.7891H20.7533C17.6783 15.7891 15.7503 17.9661 15.7503 21.0481V29.3621C15.7503 32.4441 17.6693 34.6211 20.7533 34.6211H29.5773C32.6623 34.6211 34.5813 32.4441 34.5813 29.3621V25.3341" stroke="#E4C107" stroke-width="1.5" stroke-linecap="round" stroke-linejoin="round"/>
<path fill-rule="evenodd" clip-rule="evenodd" d="M21.8278 23.921L29.3008 16.448C30.2318 15.518 31.7408 15.518 32.6718 16.448L33.8888 17.665C34.8198 18.596 34.8198 20.106 33.8888 21.036L26.3798 28.545C25.9728 28.952 25.4208 29.181 24.8448 29.181H21.0988L21.1928 25.401C21.2068 24.845 21.4338 24.315 21.8278 23.921Z" stroke="#E4C107" stroke-width="1.5" stroke-linecap="round" stroke-linejoin="round"/>
<path d="M28.1652 17.6025L32.7312 22.1685" stroke="#E4C107" stroke-width="1.5" stroke-linecap="round" stroke-linejoin="round"/>
</svg>
