<svg width="20" height="20" viewBox="0 0 20 20" fill="none" xmlns="http://www.w3.org/2000/svg">
<path d="M10 0C8.02219 0 6.08879 0.58649 4.4443 1.6853C2.79981 2.78412 1.51809 4.3459 0.761209 6.17317C0.00433284 8.00043 -0.193701 10.0111 0.192152 11.9509C0.578004 13.8907 1.53041 15.6725 2.92894 17.0711C4.32746 18.4696 6.10929 19.422 8.0491 19.8079C9.98891 20.1937 11.9996 19.9957 13.8268 19.2388C15.6541 18.4819 17.2159 17.2002 18.3147 15.5557C19.4135 13.9112 20 11.9778 20 10C20 8.68678 19.7413 7.38642 19.2388 6.17317C18.7363 4.95991 17.9997 3.85752 17.0711 2.92893C16.1425 2.00035 15.0401 1.26375 13.8268 0.761205C12.6136 0.258658 11.3132 0 10 0ZM10 18C8.41775 18 6.87104 17.5308 5.55544 16.6518C4.23985 15.7727 3.21447 14.5233 2.60897 13.0615C2.00347 11.5997 1.84504 9.99113 2.15372 8.43928C2.4624 6.88743 3.22433 5.46197 4.34315 4.34315C5.46197 3.22433 6.88743 2.4624 8.43928 2.15372C9.99113 1.84504 11.5997 2.00346 13.0615 2.60896C14.5233 3.21447 15.7727 4.23984 16.6518 5.55544C17.5308 6.87103 18 8.41775 18 10C18 12.1217 17.1572 14.1566 15.6569 15.6569C14.1566 17.1571 12.1217 18 10 18ZM8 7C8 6.80222 7.94136 6.60888 7.83147 6.44443C7.72159 6.27998 7.56541 6.15181 7.38269 6.07612C7.19996 6.00043 6.9989 5.98063 6.80491 6.01921C6.61093 6.0578 6.43275 6.15304 6.2929 6.29289C6.15305 6.43275 6.0578 6.61093 6.01922 6.80491C5.98063 6.99889 6.00044 7.19996 6.07612 7.38268C6.15181 7.56541 6.27998 7.72159 6.44443 7.83147C6.60888 7.94135 6.80222 8 7 8C7.26522 8 7.51957 7.89464 7.70711 7.70711C7.89465 7.51957 8 7.26522 8 7ZM13 6C12.8022 6 12.6089 6.05865 12.4444 6.16853C12.28 6.27841 12.1518 6.43459 12.0761 6.61732C12.0004 6.80004 11.9806 7.00111 12.0192 7.19509C12.0578 7.38907 12.153 7.56725 12.2929 7.70711C12.4328 7.84696 12.6109 7.9422 12.8049 7.98079C12.9989 8.01937 13.2 7.99957 13.3827 7.92388C13.5654 7.84819 13.7216 7.72002 13.8315 7.55557C13.9414 7.39112 14 7.19778 14 7C14 6.73478 13.8946 6.48043 13.7071 6.29289C13.5196 6.10536 13.2652 6 13 6ZM10 9C9.10605 9.03645 8.26275 9.42483 7.65396 10.0805C7.04516 10.7361 6.72023 11.6058 6.75 12.5C6.72023 13.3942 7.04516 14.2639 7.65396 14.9195C8.26275 15.5752 9.10605 15.9635 10 16C10.894 15.9635 11.7373 15.5752 12.3461 14.9195C12.9548 14.2639 13.2798 13.3942 13.25 12.5C13.2798 11.6058 12.9548 10.7361 12.3461 10.0805C11.7373 9.42483 10.894 9.03645 10 9ZM10 14C9.6363 13.9645 9.30122 13.7872 9.06728 13.5064C8.83334 13.2257 8.71936 12.8641 8.75 12.5C8.71936 12.1359 8.83334 11.7743 9.06728 11.4936C9.30122 11.2128 9.6363 11.0355 10 11C10.3637 11.0355 10.6988 11.2128 10.9327 11.4936C11.1667 11.7743 11.2807 12.1359 11.25 12.5C11.2807 12.8641 11.1667 13.2257 10.9327 13.5064C10.6988 13.7872 10.3637 13.9645 10 14Z" fill="#3E64FF"/>
</svg>
